<svg xmlns="http://www.w3.org/2000/svg" width="116" height="26" fill="none"><g fill="#fff" clip-path="url(#a)"><path d="M19.036 1.87a2.242 2.242 0 0 0-2.233 2.246c0 1.245 1.008 2.192 2.233 2.192 1.226 0 2.234-1.001 2.234-2.192 0-1.19-.98-2.246-2.234-2.246ZM20.862 7.684h-3.624v13.314h3.624V7.684ZM59.272 7.332c-1.444 0-3.05.623-3.869 2.003v-1.65H51.89v13.313h3.623V13.34c0-1.542.927-2.76 2.507-2.76 1.743 0 2.479 1.164 2.479 2.652v7.766h3.623V12.61c0-2.922-1.526-5.277-4.849-5.277ZM72.531 7.278c-4.005 0-7.029 2.95-7.029 7.063 0 4.113 3.024 7.063 7.029 7.063s7.028-2.977 7.028-7.063c0-4.087-3.023-7.063-7.028-7.063Zm0 10.852c-1.771 0-3.405-1.299-3.405-3.788 0-2.49 1.634-3.789 3.405-3.789s3.405 1.272 3.405 3.789c0 2.516-1.634 3.788-3.405 3.788ZM96.343 7.305c-1.77 0-3.187.596-4.25 2.22-.68-1.435-2.152-2.22-3.977-2.22-1.47 0-3.187.704-3.922 2.003V7.684h-3.46v13.314h3.623v-7.793c0-1.461.926-2.625 2.506-2.625 1.58 0 2.37 1.082 2.37 2.517V21h3.596v-7.793c0-1.434.926-2.625 2.479-2.625 1.662 0 2.37 1.082 2.37 2.517V21h3.514v-8.632c0-3.573-2.37-5.06-4.849-5.06v-.003ZM112.12 7.684l-3.296 7.794-3.568-7.794h-4.059l5.693 11.636-3.16 6.928h3.841l8.418-18.564h-3.869ZM29.264 18.13c-1.771 0-3.405-1.3-3.405-3.79 0-2.489 1.635-3.787 3.405-3.787 1.099 0 2.068.49 2.646 1.464l3.418-1.113c-1.1-2.221-3.301-3.626-6.064-3.626-4.005 0-7.029 2.95-7.029 7.063 0 4.113 3.024 7.063 7.029 7.063 3.328 0 5.84-2.057 6.594-5.098h-3.763c-.539 1.212-1.604 1.824-2.831 1.824ZM43.488 7.278c-4.005 0-7.029 2.95-7.029 7.063 0 4.113 3.024 7.063 7.029 7.063 4.004 0 7.028-2.977 7.028-7.063 0-4.087-3.024-7.063-7.028-7.063Zm0 10.852c-1.771 0-3.406-1.299-3.406-3.788 0-2.49 1.635-3.789 3.406-3.789 1.77 0 3.405 1.272 3.405 3.789 0 2.516-1.635 3.788-3.405 3.788ZM12.459 9.338c.743-.978.898-1.917.898-3.04 0-1.124-1.03-4.488-4.782-4.488H-.032v19.176h9.298c4.631 0 6.586-3.187 6.586-6.55 0-1.541-.647-3.543-3.394-5.099v.001ZM3.603 4.753h4.384a1.82 1.82 0 0 1 1.826 1.814A1.82 1.82 0 0 1 7.987 8.38H3.603V4.752Zm5.233 13.29H3.603v-6.72h5.233c1.868 0 3.382 1.505 3.382 3.36 0 2.057-1.346 3.36-3.382 3.36Z"/></g><defs><clipPath id="a"><path fill="#fff" d="M0 0h116v26H0z"/></clipPath></defs></svg>